<svg width="884" height="692" viewBox="0 0 884 692" fill="none" xmlns="http://www.w3.org/2000/svg">
<path d="M405.097 321.247L456.715 232.112C460.922 224.854 458.448 215.561 451.19 211.378C443.932 207.17 434.639 209.644 430.455 216.902L391.991 283.314L367.904 241.613C348.395 207.864 313.49 187.707 274.517 187.707H274.494C235.497 187.707 200.593 207.887 181.106 241.659L14.6034 530.236C-4.88319 564.008 -4.86008 604.322 14.6265 638.071C34.113 671.82 69.0409 691.977 108.014 691.977H128.24C166.589 691.977 202.326 671.357 221.558 638.163L405.12 321.247H405.097ZM195.276 622.953C181.453 646.809 155.771 661.626 128.217 661.626H107.991C79.9746 661.626 54.8941 647.155 40.8859 622.884C26.8778 598.635 26.8778 569.671 40.8859 545.4L207.389 256.823C221.397 232.552 246.477 218.058 274.494 218.058C302.51 218.058 327.59 232.528 341.598 256.8L374.423 313.641L195.276 622.953Z" fill="#38BDF8"/>
<path d="M869.15 530.19L702.531 241.613C683.045 207.864 648.117 187.707 609.144 187.707C570.148 187.707 535.22 207.864 515.733 241.659L429.627 390.917C429.535 391.079 429.442 391.241 429.35 391.403L349.254 530.236C329.767 563.985 329.767 604.299 349.254 638.071C368.74 671.843 403.668 692 442.664 692C502.21 692 550.638 643.549 550.638 584.003C550.638 565.349 545.599 546.764 536.052 530.213L460.163 398.753L542.039 256.846C556.047 232.575 581.151 218.081 609.167 218.081C637.183 218.081 662.264 232.551 676.272 256.823L842.89 545.4C856.898 569.671 856.898 598.635 842.89 622.884C828.882 647.155 803.801 661.626 775.785 661.626H760.829C733.298 661.626 707.617 646.832 693.794 623.022L536.399 351.667C532.191 344.408 522.899 341.935 515.664 346.142C508.405 350.349 505.932 359.642 510.139 366.877L667.534 638.233C686.766 671.381 722.503 691.977 760.829 691.977H775.785C814.781 691.977 849.686 671.82 869.173 638.048C888.659 604.276 888.659 563.962 869.173 530.19H869.15ZM509.746 545.377C516.727 557.466 520.264 570.457 520.264 583.98C520.264 621.312 490.583 661.626 442.641 661.626C414.625 661.626 389.544 647.132 375.536 622.884C361.528 598.635 361.528 569.671 375.536 545.423L442.618 429.128L509.746 545.4V545.377Z" fill="#FBBF24"/>
<path d="M594.398 59.0645C594.251 53.3568 590.632 48.4243 585.177 46.4976L455.803 0.803029C452.771 -0.267676 449.433 -0.267676 446.401 0.803029L317.026 46.4976C311.57 48.4243 307.95 53.3582 307.804 59.0659C309.365 60.8322 308.421 100.299 308.682 103.457L299.585 109.876C293.563 114.164 300.149 123.191 306.184 118.982L304.896 125.773C303.566 132.95 314.639 135.037 316.061 127.828L316.999 122.883C321.117 128.045 329.674 122.438 326.396 116.7L320.04 104.936V73.5831L360.853 90.3352C361.892 92.9687 358.55 155.213 362.844 155.466C387.76 176.415 421.904 188.745 454.621 187.638C485.141 187.053 516.151 175.023 539.365 155.461C543.683 155.422 540.367 92.6788 541.354 90.3338L585.835 72.0761C591.184 69.8803 594.547 64.7735 594.401 59.0659L594.398 59.0645ZM529.994 148.594C489.405 185.845 410.419 183.689 372.209 148.587V94.9944C476.542 135.302 425.82 135.175 529.994 94.9944V148.592V148.594ZM581.463 61.7468C551.215 73.4772 481.25 104.324 450.113 114.854C419.44 101.493 348.628 74.5535 319.382 60.506C318.871 59.1216 319.012 57.9059 320.86 57.029C322.584 57.0165 450.245 10.1801 451.965 11.3344C451.969 11.3344 581.344 57.029 581.344 57.029C583.849 58.0021 583.508 60.7528 581.464 61.7468H581.463Z" fill="#10B981"/>
</svg>
