<svg width="640" height="640" viewBox="0 0 640 640" fill="none" xmlns="http://www.w3.org/2000/svg">
<path d="M320 640C143.269 640 0 496.731 0 320C0 143.269 143.269 0 320 0C496.731 0 640 143.269 640 320C640 496.731 496.731 640 320 640Z" fill="white"/>
<path d="M301.378 271.695L327.038 227.385C329.129 223.777 327.899 219.158 324.291 217.078C320.683 214.986 316.064 216.216 313.984 219.824L294.863 252.838L282.889 232.108C273.19 215.331 255.839 205.311 236.465 205.311H236.453C217.068 205.311 199.717 215.343 190.03 232.131L107.259 375.586C97.5725 392.374 97.584 412.414 107.271 429.191C116.958 445.968 134.321 455.989 153.695 455.989H163.75C182.813 455.989 200.578 445.739 210.139 429.237L301.389 271.695H301.378ZM197.074 421.676C190.202 433.535 177.435 440.901 163.738 440.901H153.683C139.756 440.901 127.288 433.707 120.325 421.642C113.361 409.588 113.361 395.189 120.325 383.124L203.095 239.669C210.059 227.604 222.526 220.399 236.453 220.399C250.381 220.399 262.848 227.592 269.812 239.658L286.129 267.914L197.074 421.676Z" fill="#38BDF8"/>
<path d="M532.064 375.563L449.236 232.108C439.549 215.331 422.186 205.311 402.812 205.311C383.427 205.311 366.064 215.331 356.377 232.131L313.573 306.329C313.527 306.409 313.481 306.49 313.435 306.57L273.618 375.586C263.931 392.363 263.931 412.403 273.618 429.191C283.305 445.98 300.668 456 320.054 456C349.655 456 373.728 431.915 373.728 402.314C373.728 393.041 371.223 383.802 366.478 375.574L328.752 310.224L369.454 239.681C376.417 227.615 388.897 220.41 402.824 220.41C416.751 220.41 429.219 227.604 436.182 239.669L519.01 383.124C525.973 395.189 525.973 409.588 519.01 421.642C512.046 433.707 499.578 440.901 485.651 440.901H478.217C464.531 440.901 451.764 433.547 444.893 421.711L366.65 286.817C364.559 283.209 359.939 281.979 356.342 284.071C352.734 286.162 351.505 290.782 353.596 294.378L431.839 429.272C441.399 445.75 459.164 455.989 478.217 455.989H485.651C505.037 455.989 522.388 445.968 532.075 429.18C541.762 412.391 541.762 392.351 532.075 375.563H532.064ZM353.401 383.112C356.871 389.122 358.629 395.58 358.629 402.302C358.629 420.86 343.875 440.901 320.042 440.901C306.115 440.901 293.647 433.696 286.684 421.642C279.72 409.588 279.72 395.189 286.684 383.135L320.031 325.324L353.401 383.124V383.112Z" fill="#FBBF24"/>
<path d="M395.481 141.362C395.408 138.524 393.609 136.072 390.897 135.114L326.584 112.399C325.077 111.867 323.417 111.867 321.91 112.399L257.596 135.114C254.884 136.072 253.085 138.525 253.012 141.362C253.788 142.24 253.319 161.86 253.448 163.429L248.926 166.62C245.933 168.752 249.207 173.24 252.207 171.147L251.567 174.523C250.905 178.091 256.41 179.128 257.117 175.545L257.583 173.086C259.63 175.653 263.884 172.865 262.255 170.013L259.095 164.165V148.579L279.383 156.907C279.9 158.216 278.239 189.158 280.373 189.283C292.759 199.698 309.732 205.827 325.996 205.277C341.168 204.986 356.584 199.006 368.124 189.281C370.27 189.262 368.622 158.072 369.112 156.906L391.224 147.83C393.883 146.738 395.555 144.2 395.482 141.362L395.481 141.362ZM363.465 185.867C343.288 204.386 304.023 203.314 285.028 185.864V159.223C336.893 179.26 311.679 179.197 363.465 159.223V185.867V185.867ZM389.051 142.695C374.014 148.526 339.234 163.861 323.756 169.095C308.507 162.453 273.306 149.061 258.768 142.078C258.514 141.39 258.584 140.786 259.502 140.35C260.359 140.343 323.821 117.061 324.676 117.634C324.678 117.634 388.992 140.35 388.992 140.35C390.237 140.833 390.067 142.201 389.051 142.695H389.051Z" fill="#10B981"/>
</svg>
